<?xml version="1.0" encoding="utf-8"?>
<!-- Generator: Adobe Illustrator 28.1.0, SVG Export Plug-In . SVG Version: 6.00 Build 0)  -->
<svg version="1.1" id="Layer_1" xmlns="http://www.w3.org/2000/svg" xmlns:xlink="http://www.w3.org/1999/xlink" x="0px" y="0px"
	 viewBox="0 0 80.2 111.1" style="enable-background:new 0 0 80.2 111.1;" xml:space="preserve">
<style type="text/css">
	.st0{fill:#3F3F3F;}
</style>
<text transform="matrix(1.34 0 0 1 -184.001 78.4601)" class="st0" style="font-family:'Blackboysonmopeds'; font-size:104.49px;">x</text>
<path class="st0" d="M66.9,62.5c-3.9,0-8.6-0.9-9.9-3.5c-0.8-1.5,0-3.2,0.8-4.3c3.1-4.3,4.7-9,4.7-13.7c0-12.4-10-22.5-22.4-22.5
	c-12.3,0-22.4,10.1-22.4,22.5c0,4.7,1.6,9.5,4.7,13.7c0.8,1.1,1.6,2.8,0.8,4.3c-1.3,2.6-6,3.5-9.9,3.5c-4.4,0-7.9,3.6-7.9,7.9
	c0,4.4,3.5,7.9,7.9,7.9c2,0,4.7-0.4,7.2-1c-0.5,0.4-1,0.8-1.5,1.1c-3.1,2.2-4.1,5.8-2.6,9.4c0.9,2.1,2.6,3.7,4.8,4.5
	c2,0.7,4,0.6,5.8-0.4c5.2-2.8,8.6-7.4,11.1-10.8c0.7-0.9,1.5-2.1,2.1-2.8c0.6,0.7,1.5,1.8,2.1,2.8c2.5,3.4,5.8,8.1,11.1,10.8
	c1,0.5,2.2,0.8,3.3,0.8c0.8,0,1.7-0.1,2.5-0.4c2.1-0.8,3.9-2.4,4.8-4.5c1.5-3.5,0.5-7.1-2.6-9.4c-0.5-0.4-1-0.8-1.5-1.1
	c2.5,0.6,5.2,1,7.2,1c4.4,0,7.9-3.6,7.9-7.9C74.8,66,71.3,62.5,66.9,62.5z M29.6,43.5c0-1.7,1.3-3,3-3c1.6,0,3,1.3,3,3
	c0,1.7-1.3,3-3,3C31,46.5,29.6,45.1,29.6,43.5z M40.1,54.7c-4.4,0.2-7-3.1-7.2-3.4l14.3-1.2C45.9,52.8,43.1,54.6,40.1,54.7z
	 M47.6,46.5c-1.6,0-3-1.4-3-3c0-1.7,1.3-3,3-3c1.6,0,3,1.4,3,3C50.6,45.1,49.2,46.5,47.6,46.5z"/>
</svg>
