<?xml version="1.0" encoding="UTF-8"?>
<svg id="Layer_1" data-name="Layer 1" xmlns="http://www.w3.org/2000/svg" width="79.29" height="79.3" viewBox="0 0 79.29 79.3">
  <defs>
    <style>
      .cls-1 {
        fill: #3f3f3f;
        stroke: #3f3f3f;
        stroke-miterlimit: 10;
      }
    </style>
  </defs>
  <path class="cls-1" d="M3.3,25.67v.12c0,.72-.26,1.42-.73,1.96h0c-.94,1.12-2.06,3.12-2.06,6.31,0,2.89.93,4.93,2.04,6.28.49.6.76,1.34.75,2.11h0c0,3.09,2.5,5.59,5.59,5.59h1.4c.77,0,1.4-.63,1.4-1.4v-25.17c0-.77-.63-1.4-1.4-1.4h-1.4c-3.09,0-5.59,2.5-5.59,5.59Z"/>
  <path class="cls-1" d="M73.93,27.52l-.16-.03c-.33-.06-.57-.35-.57-.69V5.75c0-2.21-1.47-4.19-3.65-4.95-2.08-.72-4.25-.13-5.54,1.49-2.73,3.26-5.73,6.28-8.97,9.03-4.13,3.5-8.08,5.99-11.71,7.39-.54.21-.9.73-.9,1.31v27.14c0,1.12.67,2.13,1.69,2.57,3.38,1.45,7.03,3.82,10.84,7.04,3.26,2.78,6.28,5.83,9.03,9.12.89,1.12,2.26,1.76,3.69,1.72.62,0,1.24-.11,1.82-.3,2.24-.74,3.69-2.66,3.69-4.87v-21.12c0-.34.25-.63.58-.69l.15-.02c1.68-.46,4.86-2.41,4.86-6.54s-3.18-6.09-4.86-6.54Z"/>
  <path class="cls-1" d="M36.85,50.84v-29.36c0-.77-.63-1.4-1.4-1.4h-16.78c-.77,0-1.4.63-1.4,1.4v53.13c0,2.32,1.88,4.19,4.19,4.19h9.17c1.77.01,3.44-.79,4.53-2.18,1.12-1.44,1.46-3.34.91-5.08-.28-.91-.63-1.92-1.01-3-1.38-4-3.21-6.48-3.69-12.11,3.04-.07,5.47-2.55,5.47-5.59Z"/>
</svg>