<?xml version="1.0" encoding="utf-8"?>
<!-- Generator: Adobe Illustrator 28.1.0, SVG Export Plug-In . SVG Version: 6.00 Build 0)  -->
<svg version="1.1" id="Layer_1" xmlns="http://www.w3.org/2000/svg" xmlns:xlink="http://www.w3.org/1999/xlink" x="0px" y="0px"
	 viewBox="0 0 442 419.3" style="enable-background:new 0 0 442 419.3;" xml:space="preserve">
<style type="text/css">
	.st0{fill:#855CD6;}
	.st1{fill:#362560;}
</style>
<path class="st0" d="M117,229.4c-13.3-10.6-26.1-21.1-39.3-31.3c-9.6-7.4-20.3-11.7-32.5-7.9c-4.1,1.3-8.3,3.7-11.4,6.6
	c-8.6,8.1-6.3,18.4,4.7,22.5c4.1,1.5,8.8,1.5,12.9,3.1c2.4,0.9,5.6,3.4,5.9,5.5c0.3,2.2-2.2,5.1-4,7.2c-1,1.2-3,2-4.7,2.3
	c-13.4,2.5-24-2.9-32.7-12.5c-8.1-9-8.1-19.4-2.8-30c11-21.9,38.6-33.3,66.3-26.4c10.6,2.6,20.7,7.1,31.7,10.9
	c-3.7-33.6,12.7-58.2,34-81.2c7.3-7.9,13.8-17.5,17.7-27.5c6.7-17.1-2.8-27.2-21.1-24.9c-3.8,0.5-7.6,0.1-12.6,0.1
	c7.4-12,23.2-17.4,37.4-14.2c13.2,3,23.4,12.8,22.8,26.1c-0.5,11.6-3.5,23.5-7.7,34.3c-7.3,18.5-17,36.1-24.5,54.5
	c-4.9,12.1-2.5,24.2,5.9,34.5c5.6,6.9,12.6,11.5,21.8,8.7c9.2-2.7,13.6-10.4,13.3-19.2c-0.3-8.7-2.2-17.7-5.4-25.7
	c-13.6-34.5,3.3-72.2,38.3-84.2c33.4-11.5,71.2,8.2,80.9,42.6c5.5,19.5,1.9,37.8-9.8,54.4c-4.7,6.6-9.7,12.8-14.1,19.6
	c-1.5,2.3-1.5,5.4-2.2,8.2c3.1,0.6,6.3,2,9.2,1.5c10-1.6,16.5-8.2,19.9-17.3c4.1-10.9,6.4-22.4,11-33c6.3-14.3,12.1-29.5,21.5-41.7
	c13.9-18.1,33.6-26.5,57.1-20.4c12,3.1,20.3,10.8,21.3,23.5c1.1,12.9-3.3,24.4-14.4,31.8c-3.1,2.1-8.7,0.5-13.2,0.6
	c0.8-4,0.4-8.7,2.4-11.8c7.7-11.8,8.9-18.5,3.2-24.1c-5.7-5.5-19.3-5.4-27.1,2.2c-5.5,5.3-10.6,12.7-12.3,20
	c-3.4,14.7-4.3,29.9-6.4,46.3c18.1-7.5,34.7-8.6,46.4,8.3c15.1,21.8,7.2,42.4-6.4,63c26.2,2.5,31.4,21.7,34.2,41.9
	c1.7,12.7-2.7,24.3-11.8,33.5c-8,8-17.8,11.4-28.6,6.5c-10.9-5-18.1-13.7-19.6-25.9c-0.3-2.8,2.5-6,3.9-8.9c2.2,2.1,5.3,3.8,6.5,6.4
	c3.6,7.5,6.4,15.5,17.1,13.3c7.3-1.5,11.7-10.3,11.4-21.2c-0.4-16.4-17.1-31.2-37.1-32.1c-6.4-0.3-13.1,0.8-19.4,2.2
	c-8.7,1.9-17.1,4.7-26.4,7.4c1.1,1.4,1.7,2.7,2.8,3.4c18.5,11.4,28.1,27.9,25,49.6c-3.5,24.8-18.8,40.7-42.8,47.7
	c-29.4,8.5-59.2-6.5-66-33.1c-2.7-10.5-2.3-20.9,4.5-29.9c1.7-2.3,5.2-3.2,7.9-4.7c0.5,2.9,2.3,6.5,1.3,8.7
	c-10.1,22,14.6,39.3,34.2,33.2c10.5-3.3,18.8-9.2,24.1-18.6c7.8-13.7,3.5-28-10.9-34.2c-9.5-4.1-19.8-6.2-29.6-9.8
	c-9.1-3.3-18-7.4-27.4-11.3c-0.1,0.8-0.5,1.8-0.4,2.9c1.5,16.7-6.1,28.5-19.2,37.9c-9.4,6.7-19.5,13.1-27.4,21.3
	c-15.8,16.5-14,42.6,2.7,54.5c3.1,2.2,6.9,4.9,10.3,4.8c5.2-0.1,12.1-1,15-4.3c2.4-2.8,0.3-9.6-0.1-14.7c-0.1-1.1-1.4-2-1.7-3.1
	c-0.8-3.5-1.4-7-2-10.6c3.9,1.3,8.7,1.6,11.5,4.1c8.9,8.1,11.8,23.7,7.1,33.9c-5.5,12-15.8,15.8-28,15c-22.1-1.5-36.9-13.8-46.4-33
	c-9.1-18.4-7.6-35.9,6-51.6c7.6-8.8,15.8-17.1,23.4-25.9c8.8-10.2,14.9-21.5,12.5-36.2c-25.9-1.4-51.6-3.2-77.4-4.1
	c-5-0.2-10.5,2.5-15,5c-12.2,6.9-18.5,21.3-15.3,33.4c3.2,12,14.8,21.3,27.5,22.1c11.3,0.8,24.4-9.1,28.8-21.8
	c1.9-5.5,3.4-11.1,5.1-16.7c1-0.2,1.9-0.4,2.9-0.6c1.8,2.9,4.4,5.6,5.4,8.8c9.8,29.5-17,57.2-49.1,51.2
	c-19.8-3.7-32.7-15.3-38.6-34.3c-6.3-20.4-0.2-38.3,13.2-53.9c4.4-5.1,10.1-9.1,14.7-13.1L117,229.4z M336.4,226.9
	c12.7,0,23-0.8,33.2,0.2c13.3,1.4,19.4-5.9,23.9-16.5c4.4-10.4,3.2-19.4-3.4-24.5c-5.9-4.5-15.7-3.7-23.4,4.4
	C356.2,201.5,347.1,213.9,336.4,226.9L336.4,226.9z"/>
<g>
	<path class="st1" d="M233.5,122.3c-0.8-5.9-1.4-9.5-2.1-14.7c-3.7,3.6-6.8,6.5-10.7,10.2c-2.3-8.1,2-11.9,6.6-14.3
		c2.2-1.1,7.5-0.1,8.9,1.8C239.4,110,240,115.5,233.5,122.3z"/>
	<path class="st1" d="M277.3,128.7c-2-6-3.3-9.7-5-14.8c-3,4.1-5.3,7.3-8.4,11.6c-3.3-7.7-0.3-12.3,4.3-15.4c1.9-1.3,7-0.6,8.4,1.1
		C280.4,115.4,282.8,120.9,277.3,128.7L277.3,128.7z"/>
	<path class="st1" d="M237.5,130.9c4.5,6.9,10,9.4,18.6,5.2c-1,2.1-1.7,5.7-3,5.9c-4.3,0.7-9.2,1.3-13.1-0.2c-2.6-1-3.7-5.6-5.5-8.7
		C235.5,132.4,236.5,131.7,237.5,130.9L237.5,130.9z"/>
</g>
</svg>
