<?xml version="1.0" encoding="UTF-8"?>
<svg id="Layer_1" data-name="Layer 1" xmlns="http://www.w3.org/2000/svg" width="78.37" height="78.37" viewBox="0 0 78.37 78.37">
  <defs>
    <style>
      .cls-1 {
        fill: #3f3f3f;
        stroke: #3f3f3f;
        stroke-miterlimit: 10;
        stroke-width: 2px;
      }
    </style>
  </defs>
  <path class="cls-1" d="M77.37,39.19c0,21.09-17.1,38.19-38.19,38.19S1,60.27,1,39.19c0-1.76,1.42-3.18,3.18-3.18s3.18,1.42,3.18,3.18c0,17.57,14.25,31.82,31.82,31.82s31.82-14.25,31.82-31.82S56.76,7.36,39.19,7.36c-1.76,0-3.18-1.42-3.18-3.18s1.42-3.18,3.18-3.18c21.08.02,38.16,17.11,38.19,38.19ZM33.7,36h-7.25c-1.76,0-3.18,1.42-3.18,3.18s1.42,3.18,3.18,3.18h7.25c1.75,3.04,5.63,4.08,8.66,2.33,3.04-1.75,4.08-5.63,2.33-8.66-.56-.97-1.36-1.77-2.33-2.33v-10.43c0-1.76-1.42-3.18-3.18-3.18s-3.18,1.42-3.18,3.18v10.43c-.95.55-1.75,1.35-2.3,2.3ZM6.81,28.95c1.76,0,3.18-1.42,3.18-3.18s-1.42-3.18-3.18-3.18-3.18,1.42-3.18,3.18,1.42,3.18,3.18,3.18ZM14.43,17.57c1.76,0,3.18-1.42,3.18-3.18s-1.42-3.18-3.18-3.18-3.18,1.42-3.18,3.18,1.42,3.18,3.18,3.18ZM25.75,10.04c1.76,0,3.18-1.42,3.18-3.18s-1.42-3.18-3.18-3.18-3.18,1.42-3.18,3.18,1.42,3.18,3.18,3.18Z"/>
</svg>