<svg width="96" height="96" xmlns="http://www.w3.org/2000/svg" xmlns:xlink="http://www.w3.org/1999/xlink" xml:space="preserve" overflow="hidden"><g transform="translate(-592 -312)"><path d="M673 337.6C668.7 327.7 660.9 320 650.8 316L649.3 319.7C658.3 323.3 665.4 330.2 669.3 339.2 673.1 348.2 673.3 358.1 669.7 367.1 666.1 376.1 659.2 383.2 650.2 387.1 641.2 390.9 631.3 391.1 622.3 387.5L620.8 391.2C624.5 392.7 628.4 393.6 632.3 393.9L632.3 397.8 612.3 397.8 612.3 403.8 660.3 403.8 660.3 397.8 640.3 397.8 640.3 393.8C644.2 393.4 648 392.3 651.8 390.8 661.8 386.5 669.4 378.7 673.4 368.6 677.4 358.5 677.3 347.6 673 337.6Z" fill="#FFFFFF"/><path d="M668.5 353.6C668.5 371.549 653.949 386.1 636 386.1 618.051 386.1 603.5 371.549 603.5 353.6 603.5 335.651 618.051 321.1 636 321.1 653.949 321.1 668.5 335.651 668.5 353.6Z" fill="#FFFFFF"/></g></svg>