<svg width="720" height="720" xmlns="http://www.w3.org/2000/svg" xmlns:xlink="http://www.w3.org/1999/xlink" xml:space="preserve" overflow="hidden"><defs><clipPath id="clip0"><rect x="280" y="0" width="720" height="720"/></clipPath></defs><g clip-path="url(#clip0)" transform="translate(-280 0)"><path d="M687.7 407.7C699.895 395.505 707.455 378.63 707.455 360 707.455 341.37 699.895 324.495 687.7 312.3 661.15 285.75 385.3 105.3 385.3 105.3 385.3 105.3 565.3 381.15 591.85 407.7 604.09 420.03 621.055 427.68 639.775 427.68 658.495 427.68 675.46 420.03 687.7 407.7Z" fill="#FFFFFF"/><path d="M640 0 640 135 685 135 685 71.55C826.885 93.825 934.12 215.19 934.12 361.575 934.12 523.62 802.765 654.975 640.72 654.975 478.675 654.975 347.32 523.62 347.32 361.575 347.32 305.055 363.295 252.315 390.97 207.54L349.75 148.05C306.64 206.685 280.765 280.305 280.765 360 280.765 558.81 441.955 720 640.765 720 839.575 720 1000.77 558.81 1000.77 360 1000.77 161.19 839.575 0 640.765 0 640.495 0 640.225 0 640 0Z" fill="#FFFFFF"/></g></svg>