<svg width="96" height="96" xmlns="http://www.w3.org/2000/svg" xmlns:xlink="http://www.w3.org/1999/xlink" xml:space="preserve" overflow="hidden"><g transform="translate(-46 -243)"><path d="M105.3 280.3C101.1 280.3 97.8 276.9 97.8 272.8 97.8 268.7 101.2 265.3 105.3 265.3 109.5 265.3 112.8 268.7 112.8 272.8 112.8 276.9 109.4 280.3 105.3 280.3ZM122.2 268.1C121.8 266.7 121.3 265.4 120.6 264.2L122.2 259.5 118.6 255.9 113.9 257.5C112.7 256.8 111.4 256.3 110 255.9L107.8 251.5 102.8 251.5 100.6 255.9C99.2 256.3 97.9 256.8 96.7 257.5L92 255.9 88.4 259.5 90 264.2C89.3 265.4 88.8 266.7 88.4 268.1L84 270.3 84 275.3 88.4 277.5C88.8 278.9 89.3 280.2 90 281.4L88.4 286.1 91.9 289.6 96.6 288C97.8 288.7 99.1 289.2 100.5 289.6L102.7 294 107.7 294 109.9 289.6C111.3 289.2 112.6 288.7 113.8 288L118.5 289.6 122.1 286.1 120.5 281.4C121.2 280.2 121.8 278.8 122.2 277.5L126.6 275.3 126.6 270.3 122.2 268.1Z"/><path d="M82.7 316.7C78.5 316.7 75.2 313.3 75.2 309.2 75.2 305 78.6 301.7 82.7 301.7 86.9 301.7 90.2 305.1 90.2 309.2 90.2 313.3 86.9 316.7 82.7 316.7L82.7 316.7ZM98 300.6 99.6 295.9 96 292.3 91.3 293.9C90.1 293.2 88.7 292.7 87.4 292.3L85.2 287.9 80.2 287.9 78 292.3C76.6 292.7 75.3 293.2 74.1 293.9L69.4 292.3 65.9 295.8 67.4 300.5C66.7 301.7 66.2 303.1 65.8 304.4L61.4 306.6 61.4 311.6 65.8 313.8C66.2 315.2 66.7 316.5 67.4 317.7L65.9 322.4 69.4 325.9 74.1 324.4C75.3 325.1 76.6 325.6 78 326L80.2 330.4 85.2 330.4 87.4 326C88.8 325.6 90.1 325.1 91.3 324.4L96 326 99.5 322.4 98 317.8C98.7 316.6 99.2 315.3 99.6 313.9L104 311.7 104 306.7 99.6 304.5C99.2 303.1 98.7 301.8 98 300.6Z"/></g></svg>