<svg width="96" height="96" xmlns="http://www.w3.org/2000/svg" xmlns:xlink="http://www.w3.org/1999/xlink" xml:space="preserve" overflow="hidden"><g transform="translate(-88 -515)"><path d="M141.6 568.3C145 571 148.2 575.7 150.6 581L121.4 581C123.9 575.7 127 570.9 130.4 568.3 132 567 133 565.1 133 563 133 560.9 132 559 130.4 557.7 123.6 552.4 117.7 538.8 116.7 529L155.4 529C154.3 538.8 148.5 552.4 141.7 557.7 140 559 139 560.9 139 563 139 565.1 140 567 141.6 568.3ZM161.3 529 164 529 164 523 108 523 108 529 110.6 529C111.7 540.1 118.1 556.3 127.4 563 118.1 569.7 111.6 585.9 110.6 597L108 597 108 603 164 603 164 597 161.3 597C160.3 585.9 153.8 569.7 144.5 563 153.8 556.3 160.3 540.1 161.3 529Z" fill="#7F7F7F"/></g></svg>