<?xml version="1.0" encoding="utf-8"?>
<!-- Generator: Adobe Illustrator 28.1.0, SVG Export Plug-In . SVG Version: 6.00 Build 0)  -->
<svg version="1.1" id="Layer_1" xmlns="http://www.w3.org/2000/svg" xmlns:xlink="http://www.w3.org/1999/xlink" x="0px" y="0px"
	 viewBox="0 0 20 20" style="enable-background:new 0 0 20 20;" xml:space="preserve">
<style type="text/css">
	.st0{fill:#3F3F3F;}
</style>
<g>
	<path class="st0" d="M14.1,9.4C13,9.7,11.6,9.9,9.8,9.9S6.7,9.7,5.5,9.4v1.2c1.4,0.3,2.8,0.5,4.3,0.5s3-0.2,4.3-0.5V9.4z"/>
	<path class="st0" d="M9.8,3.7C5.6,3.7,1.2,5,1.2,7.4c0,1.3,1.3,2.2,3.1,2.9V9C3.1,8.5,2.4,7.9,2.4,7.4C2.4,6.4,5.2,5,9.8,5
		s7.4,1.4,7.4,2.5c0,0.5-0.7,1.1-1.9,1.5v1.3c1.8-0.6,3.1-1.6,3.1-2.9C18.5,5,14,3.7,9.8,3.7z"/>
</g>
<g>
	<path class="st0" d="M4.3,8.9C3.1,8.4,2.4,7.9,2.4,7.4c0-0.2,0.1-0.4,0.3-0.6H1.8C1.4,6.8,1.2,7,1.2,7.4v7.4c0,1.3,1.3,2.2,3.1,2.9
		V8.9z"/>
	<path class="st0" d="M14.1,9.4C13,9.7,11.6,9.9,9.8,9.9S6.7,9.7,5.5,9.4V18c1.4,0.3,2.8,0.5,4.3,0.5s3-0.2,4.3-0.5V9.4z M11.7,15.9
		c0.1,0.2,0,0.6-0.2,0.7c-0.1,0.1-0.2,0.1-0.4,0.1s-0.2-0.1-0.4-0.1c-0.6-0.4-1.4-0.4-1.9,0c-0.2,0.2-0.5,0.2-0.7,0
		c-0.2-0.2-0.3-0.4-0.2-0.7c0.2-0.7,0-1.4-0.6-1.9C7,13.8,6.9,13.6,7,13.3c0.1-0.2,0.3-0.4,0.6-0.4c0.7,0,1.4-0.4,1.5-1.1
		c0.1-0.2,0.3-0.4,0.6-0.4c0.3,0,0.5,0.2,0.6,0.4c0.2,0.7,0.9,1.1,1.5,1.1c0.2,0,0.5,0.2,0.6,0.4c0.1,0.2,0,0.6-0.2,0.7
		C11.7,14.4,11.5,15.2,11.7,15.9z"/>
	<path class="st0" d="M17.9,6.8h-0.9c0.2,0.2,0.3,0.4,0.3,0.6c0,0.5-0.7,1.1-1.9,1.5v8.7c1.8-0.6,3.1-1.6,3.1-2.9V7.4
		C18.5,7,18.2,6.8,17.9,6.8z"/>
</g>
<g>
	<path class="st0" d="M8.6,7.4C8.3,7.4,8.2,7.3,8,7C7.9,6.7,8,6.3,8.3,6.2l9.3-4.3c0.3-0.1,0.7,0,0.8,0.3s0,0.7-0.3,0.8L8.8,7.3
		C8.8,7.4,8.6,7.4,8.6,7.4z"/>
</g>
<g>
	<path class="st0" d="M7.3,9.2c-1.1,0-1.9-0.8-1.9-1.9s0.8-1.9,1.9-1.9s1.9,0.8,1.9,1.9S8.4,9.2,7.3,9.2z"/>
</g>
</svg>
