<svg width="96" height="96" xmlns="http://www.w3.org/2000/svg" xmlns:xlink="http://www.w3.org/1999/xlink" xml:space="preserve" overflow="hidden"><g transform="translate(-592 -312)"><path d="M640 366C636.7 366 634 363.3 634 360 634 356.7 636.7 354 640 354 643.3 354 646 356.7 646 360 646 363.3 643.3 366 640 366ZM674 358.7 667.8 356.8 652.6 352 657.5 342.5 648.1 347.4 643.2 332.1 641.2 325.9 640 322 638.7 326 636.8 332.2 632.1 347.4 622.6 342.5 627.5 351.9 612.3 356.7 606 358.6 602 359.9 606 361.2 612.1 363.2 627.4 368 622.5 377.4 631.9 372.5 636.7 387.7 638.6 393.9 639.9 397.9 641.2 393.9 643.2 387.7 648.1 372.4 657.5 377.3 652.5 367.9 667.7 363.1 673.9 361.1 677.9 359.8 674 358.7Z" fill="#FFFFFF"/><path d="M666.9 367.6C665.9 371.1 664.2 374.4 661.9 377.3 660.6 379 659 380.5 657.4 381.9 654.5 384.2 651.2 385.9 647.6 386.9L647 389 645.6 393.5C652.2 392.4 658.3 389.4 663.2 384.8 663.8 384.2 664.4 383.6 665 383 669.5 378.1 672.5 372 673.6 365.5L669 367 666.9 367.6Z" fill="#FFFFFF"/><path d="M647.7 333.1C651.2 334.1 654.5 335.8 657.3 338.1 659 339.4 660.5 341 661.9 342.7 664.2 345.6 665.9 348.8 666.9 352.4L669 353 673.5 354.4C672.4 347.9 669.4 341.8 664.9 336.9 664.3 336.3 663.7 335.7 663.1 335.1 658.2 330.6 652.2 327.6 645.6 326.5L647 331 647.7 333.1Z" fill="#FFFFFF"/><path d="M613.1 352.2C614.1 348.7 615.8 345.4 618.1 342.5 619.4 340.8 621 339.3 622.7 337.9 625.6 335.6 628.8 334 632.3 333L633 331 634.4 326.5C627.9 327.6 621.8 330.5 616.9 335 616.3 335.6 615.7 336.2 615.1 336.8 610.6 341.7 607.5 347.8 606.4 354.3L610.9 352.9 613.1 352.2Z" fill="#FFFFFF"/><path d="M632.3 386.9C628.8 385.9 625.5 384.2 622.6 381.9 620.9 380.6 619.4 379 618.1 377.4 615.8 374.5 614.1 371.2 613.1 367.7L611 367 606.5 365.6C607.6 372.2 610.6 378.3 615.1 383.1 615.7 383.7 616.3 384.3 616.9 384.9 621.8 389.4 627.9 392.4 634.4 393.5L632.9 389 632.3 386.9Z" fill="#FFFFFF"/></g></svg>