<svg width="96" height="96" xmlns="http://www.w3.org/2000/svg" xmlns:xlink="http://www.w3.org/1999/xlink" xml:space="preserve" overflow="hidden"><g transform="translate(-592 -312)"><path d="M640 322C619 322 602 339 602 360 602 381 619 398 640 398 661 398 678 381 678 360 678 339 661 322 640 322ZM640 394C621.3 394 606 378.7 606 360 606 341.3 621.3 326 640 326 644.9 326 649.5 327 653.7 328.9L650.5 331.5C650.1 331.8 649.7 332 649.2 332L647.3 332C647.1 332 646.8 332 646.6 331.9 646.6 331.9 641.7 329 638.9 329 636.2 329 631.8 330.7 629.9 332 627 333.9 630.1 334.8 630.8 335 630.9 335 631 335 631 335L633.8 335C634.5 335 635.1 334.7 635.5 334.1L636.6 332.4C636.8 332.1 637.1 332 637.4 332L639 332 636.9 335.5C636.4 336.4 635.4 337 634.3 337L631.6 337C631.2 337 630.8 337.1 630.5 337.3L628 339 626 339C625.4 339 625 339.4 625 340L625 341C625 341.6 624.6 342 624 342L623.1 342C622.4 342 621.8 342.3 621.4 342.9L620.2 344.8C620.1 345 620 345.2 620 345.4L620 346C620 346.6 620.4 347 621 347L624.6 347C624.9 347 625.1 346.9 625.3 346.7L628.4 343.6C628.8 343.2 629.3 343 629.8 343L630.2 343C630.7 343 631.1 343.3 631.2 343.8L631.8 346.3C631.9 346.7 632.3 347.1 632.8 347.1L633 347.1C633.6 347.1 634 346.7 634 346.1L634 343.5C634 343.2 634.1 343 634.3 342.8L635 342 635.8 344.3C635.9 344.7 636.3 345 636.7 345L637.6 345C637.9 345 638.1 344.9 638.3 344.7L638.7 344.3C638.9 344.1 639.1 344 639.4 344L640 344C640.6 344 641 344.4 641 345L641 346C641 346.6 641.4 347 642 347L645.6 347C646.3 347 646.8 347.7 646.5 348.3L646.2 349.2C646 349.7 645.6 350 645.1 349.9L640.3 349.1C640.1 349.1 639.8 349.1 639.6 349.1L635.5 349.9C635.1 350 634.8 349.9 634.4 349.8 633.1 349.3 629.5 348 628 348 616.1 348 616 356 616 359 616 363 618.3 366 622 366 626.4 366 632 365.8 632 374L632 380.2C632 381.4 632.4 382.5 633.2 383.4L636.1 386.9C636.7 387.6 637.5 388 638.4 388L640.8 388C641.6 388 642.4 387.7 642.9 387.1L645.3 384.7C645.8 384.2 646.1 383.7 646.4 383.1L648.4 379C648.7 378.3 648.9 377.5 648.9 376.8L648.9 372.2C648.9 371.4 649.2 370.6 649.8 370.1L655.1 364.8C655.5 364.4 655.5 363.6 655 363.3 655 363.3 649 359.9 645.7 353.5 645.4 352.8 645.8 352 646.6 352L647 352 652.7 359.4C653.4 360.3 654.7 360.4 655.6 359.7L658.9 356.9C659.4 356.5 659.4 355.6 658.8 355.3L655.8 353.5C655.4 353.2 655.2 352.7 655.4 352.2L655.5 352C655.8 351.5 656.4 351.3 656.9 351.6L660.5 353.8C660.8 354 661.2 354.1 661.5 354.1L662.6 354.1C663.4 354.1 664.1 354.6 664.4 355.3L667.3 361.9C667.6 362.6 668.3 363.1 669.1 363.1L669.1 363.1C670 363.1 670.8 362.3 670.8 361.4L670.8 358.6C670.8 358.3 670.9 358 671.2 357.8L673.5 356C673.7 357.3 673.8 358.7 673.8 360.1 674 378.7 658.7 394 640 394Z" fill="#FFFFFF"/><path d="M622 339 622 340 623 340C623.6 340 624 339.6 624 339L624 338 625 338 625 336.4C625 336.1 624.9 335.9 624.7 335.7L623.7 334.7C623.3 334.3 622.7 334.3 622.3 334.7L620.7 336.3C620.3 336.7 620.3 337.3 620.7 337.7L622 339Z" fill="#FFFFFF"/></g></svg>