<?xml version="1.0" encoding="UTF-8"?>
<svg id="Layer_1" data-name="Layer 1" xmlns="http://www.w3.org/2000/svg" viewBox="0 0 100 100">
  <defs>
    <style>
      .cls-1 {
        fill: none;
      }

      .cls-1, .cls-2 {
        stroke-width: 0px;
      }

      .cls-2 {
        fill: #575e75;
        fill-rule: evenodd;
      }
    </style>
  </defs>
  <path id="MingCute" class="cls-1" d="M86.73,44.73v76.45H10.28V44.73h76.45ZM50.4,118.81h-.04s-.23.12-.23.12h-.06s-.05,0-.05,0l-.23-.11s-.06,0-.07.02v.03s-.07,1.36-.07,1.36l.02.06.04.04.33.24h.05s.04,0,.04,0l.33-.24.04-.05h0v-.05s-.04-1.36-.04-1.36c0-.03-.03-.05-.05-.06h0ZM51.24,118.45h-.04s-.59.3-.59.3l-.03.03h0v.04s.05,1.37.05,1.37l.02.04h0l.03.02.64.3s.07,0,.09-.03v-.04s-.1-1.96-.1-1.96c0-.04-.03-.06-.06-.07h0ZM48.96,118.45s-.07,0-.09.02l-.02.04-.11,1.96s.02.07.05.07h.05s.64-.3.64-.3l.03-.03h0v-.04s.07-1.37.07-1.37v-.04h-.01l-.03-.03-.59-.29Z"/>
  <path id="_路径" data-name="路径" class="cls-2" d="M36.03,20c7.37-1.89,15.54.05,21.33,5.83,6.48,6.48,8.13,15.94,4.98,23.94l14.65,12.4c4.69,3.97,4.99,11.11.64,15.46s-11.49,4.05-15.46-.64l-12.39-14.65c-8.01,3.16-17.48,1.5-23.96-4.98-5.78-5.78-7.72-13.95-5.83-21.33.63-2.47,3.76-3.25,5.48-1.38l9.7,10.53,7.32-2.69,2.7-7.32-10.54-9.69c-1.88-1.73-1.1-4.85,1.38-5.48Z"/>
</svg>