<?xml version="1.0" encoding="UTF-8"?>
<svg id="Icons" xmlns="http://www.w3.org/2000/svg" viewBox="0 0 28 28">
  <defs>
    <style>
      .cls-1 {
        fill: #3cf7aa;
      }

      .cls-1, .cls-2, .cls-3 {
        stroke-width: 0px;
      }

      .cls-2 {
        fill: #62d3d3;
      }

      .cls-3 {
        fill: #af7dff;
      }
    </style>
  </defs>
  <path class="cls-2" d="M25.7,6.3l-10.2,7.8,9.1,9.1c2.1-2.5,3.4-5.7,3.4-9.2,0-2.9-.9-5.5-2.3-7.7Z"/>
  <path class="cls-1" d="M15,12l9.4-7.3C22,2.1,18.7.3,15,0v12Z"/>
  <path class="cls-3" d="M13.3,14.7h0q-.1-.1,0,0c-.1-.1-.1-.2-.1-.2,0-.1-.1-.1-.1-.2V.1C5.7.6,0,6.6,0,14s6.3,14,14,14c3.5,0,6.7-1.3,9.2-3.4l-9.9-9.9Z"/>
</svg>