<?xml version="1.0" encoding="UTF-8"?>
<svg id="Layer_1" data-name="Layer 1" xmlns="http://www.w3.org/2000/svg" width="253" height="240" viewBox="0 0 253 240">
  <defs>
    <style>
      .cls-1 {
        fill: #362560;
      }

      .cls-1, .cls-2 {
        stroke-width: 0px;
      }

      .cls-2 {
        fill: #855cd6;
      }
    </style>
  </defs>
  <path class="cls-2" d="M64.63,124.41c-7.41-5.91-14.61-11.81-21.98-17.49-5.35-4.12-11.34-6.54-18.17-4.4-2.3.72-4.62,2.05-6.37,3.7-4.79,4.52-3.54,10.28,2.64,12.56,2.31.85,4.94.86,7.23,1.75,1.36.53,3.14,1.91,3.29,3.1.16,1.25-1.24,2.85-2.25,4.04-.58.69-1.7,1.1-2.65,1.28-7.48,1.37-13.44-1.64-18.25-6.99-4.54-5.05-4.54-10.83-1.58-16.74,6.13-12.26,21.6-18.62,37.04-14.78,5.91,1.47,11.58,3.96,17.72,6.11-2.09-18.78,7.1-32.53,19.03-45.38,4.1-4.41,7.7-9.79,9.88-15.37,3.72-9.54-1.55-15.2-11.81-13.91-2.11.26-4.27.04-7.02.04,4.11-6.72,12.96-9.74,20.92-7.95,7.39,1.66,13.08,7.16,12.77,14.6-.28,6.46-1.96,13.11-4.33,19.17-4.06,10.34-9.48,20.15-13.68,30.44-2.76,6.76-1.37,13.5,3.3,19.27,3.11,3.84,7.04,6.4,12.19,4.88,5.15-1.52,7.6-5.84,7.43-10.72-.17-4.84-1.22-9.88-3-14.39-7.59-19.29,1.83-40.35,21.42-47.06,18.69-6.41,39.81,4.6,45.2,23.82,3.06,10.91,1.07,21.15-5.5,30.41-2.6,3.67-5.43,7.18-7.9,10.93-.83,1.26-.86,3.04-1.25,4.58,1.72.32,3.52,1.13,5.14.86,5.59-.92,9.24-4.58,11.15-9.69,2.27-6.07,3.58-12.52,6.16-18.43,3.5-8.02,6.78-16.49,12.03-23.33,7.79-10.13,18.78-14.79,31.89-11.41,6.7,1.73,11.32,6.01,11.91,13.16.6,7.22-1.86,13.66-8.05,17.76-1.76,1.17-4.87.3-7.36.36.42-2.22.22-4.84,1.35-6.6,4.28-6.59,4.98-10.35,1.77-13.45-3.21-3.1-10.76-3.02-15.17,1.25-3.07,2.98-5.94,7.09-6.87,11.16-1.88,8.2-2.39,16.71-3.56,25.9,10.1-4.2,19.41-4.8,25.95,4.64,8.43,12.16,4.01,23.69-3.59,35.19,14.67,1.42,17.55,12.14,19.1,23.4.97,7.08-1.49,13.59-6.61,18.71-4.47,4.47-9.93,6.38-15.97,3.61-6.09-2.8-10.14-7.64-10.95-14.45-.19-1.56,1.4-3.33,2.17-5,1.24,1.19,2.94,2.15,3.63,3.6,1.99,4.18,3.6,8.69,9.55,7.44,4.06-.85,6.54-5.78,6.38-11.84-.25-9.19-9.55-17.44-20.72-17.93-3.6-.16-7.32.44-10.87,1.22-4.84,1.07-9.56,2.65-14.73,4.13.61.77.95,1.53,1.55,1.9,10.33,6.39,15.72,15.61,13.99,27.71-1.98,13.88-10.53,22.75-23.9,26.64-16.42,4.77-33.06-3.65-36.89-18.51-1.51-5.85-1.29-11.67,2.54-16.69.96-1.26,2.92-1.77,4.42-2.63.27,1.64,1.27,3.61.7,4.87-5.62,12.3,8.15,21.99,19.14,18.56,5.88-1.84,10.48-5.14,13.49-10.41,4.35-7.63,1.94-15.63-6.09-19.13-5.3-2.31-11.08-3.48-16.54-5.47-5.11-1.86-10.07-4.12-15.3-6.3-.07.42-.29,1.03-.24,1.61.85,9.31-3.41,15.93-10.73,21.17-5.27,3.77-10.88,7.31-15.32,11.93-8.85,9.22-7.83,23.82,1.53,30.46,1.73,1.23,3.85,2.76,5.76,2.71,2.91-.07,6.74-.55,8.4-2.43,1.36-1.54.16-5.38-.03-8.19-.04-.59-.8-1.11-.94-1.73-.45-1.95-.77-3.94-1.14-5.91,2.18.73,4.89.88,6.45,2.3,4.97,4.54,6.59,13.25,3.95,18.95-3.09,6.69-8.84,8.83-15.65,8.37-12.33-.84-20.61-7.7-25.92-18.46-5.07-10.28-4.24-20.04,3.34-28.85,4.24-4.93,8.83-9.56,13.07-14.49,4.9-5.7,8.33-12,6.97-20.24-14.49-.81-28.86-1.79-43.24-2.27-2.78-.09-5.85,1.37-8.4,2.8-6.84,3.83-10.34,11.88-8.55,18.65,1.77,6.68,8.25,11.89,15.36,12.36,6.29.42,13.62-5.07,16.09-12.19,1.07-3.07,1.91-6.22,2.86-9.33.54-.12,1.08-.23,1.61-.35,1.03,1.63,2.44,3.14,3.03,4.92,5.45,16.51-9.49,31.97-27.43,28.59-11.08-2.09-18.27-8.55-21.55-19.18-3.52-11.41-.13-21.4,7.37-30.12,2.47-2.87,5.67-5.1,8.2-7.32ZM187.27,122.98c7.1,0,12.88-.47,18.55.12,7.43.76,10.86-3.31,13.36-9.25,2.45-5.83,1.8-10.85-1.91-13.68-3.31-2.54-8.76-2.07-13.06,2.46-5.87,6.19-10.97,13.1-16.94,20.36Z"/>
  <g>
    <path class="cls-1" d="M129.72,64.56c-.47-3.31-.76-5.31-1.18-8.2-2.08,1.99-3.78,3.62-5.97,5.72-1.29-4.53,1.14-6.65,3.7-8.01,1.21-.64,4.2-.05,4.95,1.01,1.82,2.57,2.16,5.67-1.5,9.48Z"/>
    <path class="cls-1" d="M154.24,68.09c-1.13-3.35-1.84-5.44-2.8-8.29-1.68,2.3-2.99,4.09-4.72,6.46-1.87-4.3-.19-6.9,2.4-8.61,1.05-.7,3.91-.34,4.72.6,2.11,2.45,3.44,5.49.41,9.85Z"/>
    <path class="cls-1" d="M131.99,69.37c2.54,3.87,5.59,5.28,10.4,2.88-.55,1.15-.95,3.18-1.67,3.3-2.41.4-5.16.73-7.32-.11-1.44-.56-2.09-3.15-3.1-4.84.56-.41,1.12-.83,1.69-1.24Z"/>
  </g>
</svg>